<?xml version="1.0" standalone="no"?>
<!DOCTYPE svg PUBLIC "-//W3C//DTD SVG 20010904//EN"
 "http://www.w3.org/TR/2001/REC-SVG-20010904/DTD/svg10.dtd">
<svg version="1.0" xmlns="http://www.w3.org/2000/svg"
 width="1000.000000pt" height="1000.000000pt" viewBox="0 0 1000.000000 1000.000000"
 preserveAspectRatio="xMidYMid meet">
<metadata>
Created by potrace 1.14, written by Peter Selinger 2001-2017
</metadata>
<g transform="translate(0.000000,1000.000000) scale(0.100000,-0.100000)"
fill="#000000" stroke="none">
<path d="M1730 7183 l0 -813 186 0 186 0 16 43 c49 125 163 335 265 486 110
163 170 235 331 396 153 153 241 221 351 274 95 46 141 58 255 66 47 4 101 8
120 10 173 17 988 26 993 10 2 -5 3 -1110 2 -2455 -1 -2203 -3 -2450 -17
-2496 -34 -110 -71 -161 -158 -219 -102 -68 -258 -112 -460 -130 -36 -3 -81
-8 -100 -10 -36 -4 -132 -12 -255 -20 -158 -12 -209 -16 -213 -19 -3 -4 -5
-181 -3 -266 l1 -35 1770 0 1770 0 0 152 0 153 -37 1 c-21 0 -51 2 -66 4 -15
2 -53 6 -85 9 -31 3 -102 12 -157 21 -55 8 -116 18 -135 20 -19 3 -57 10 -85
16 -27 5 -63 11 -80 13 -188 26 -340 83 -422 159 -57 52 -86 98 -114 179 l-22
63 -1 2432 c-1 1622 2 2434 9 2436 26 9 869 -7 985 -18 19 -2 75 -6 124 -10
209 -15 376 -107 607 -335 64 -63 153 -162 199 -220 171 -215 338 -493 398
-662 l17 -48 182 0 182 0 -2 813 -2 812 -3267 1 -3268 1 0 -814z"/>
</g>
</svg>
